<svg xmlns="http://www.w3.org/2000/svg" xml:space="preserve" width="2000" height="188" data-id="lg_3hQOZGvbbIom89q5Ed" data-version="1" viewBox="0 0 2000 188"><g data-padding="20"><g transform="translate(10 3.013)scale(.96795)"><rect width="420.312" height="187.58" x="360.328" y="-400.09" fill="none" rx="0" ry="0" transform="translate(558.79 400.3)"/><path fill="#272727" d="M938.044 146.31q-5.98 0-10.63-5.23-4.64-5.23-4.64-16.35 0-7.8 2.07-15.61 2.08-7.8 4.23-14.27 3.32-10.63 5.81-19.59t2.49-17.1q0-5.64-1.24-7.8-1.25-2.16-3.24-2.16-2.16 0-4.73 2.33-2.57 2.32-5.06 7.13l-1.16-.33q.33-9.63 4.15-16.6 3.81-6.97 9.62-10.79t11.96-3.82q6.97 0 11.95 5.57 4.98 5.56 4.98 19.17 0 7.14-1.41 14.94t-3.24 15.6q5.64-2.32 11.95-3.32 6.31-.99 13.45-.99h4.31q2.16-8.3 3.74-16.35 1.58-8.06 1.58-15.03 0-2.49-.25-4.65-.25-2.15-.58-4.15v-1.32q2.49-4.49 7.22-7.14 4.73-2.66 9.54-2.66 5.48 0 9.63 3.57t4.15 11.37q0 5.81-2.24 14.94t-5.06 18.76q-3.32 11.79-6.06 22.83-2.74 11.03-2.74 18.67 0 5.15 1.66 8.13 1.66 2.99 5.31 2.99 4.98 0 7.47-4.81l1 .5q-.17 6.97-3.82 12.28t-9.05 8.3q-5.39 2.99-11.04 2.99-4.98 0-9.38-2.57-4.4-2.58-7.13-8.06-2.74-5.47-2.74-14.27 0-5.81 1.24-12.7 1.25-6.89 2.91-14.03-7.64-.5-14.94-.5-3.66 0-6.98.17t-6.3.5q-1.5 6.64-2.58 13.03t-1.08 12.37q0 3.32.42 6.55.41 3.24 1.41 6.23-2.66 6.47-7.39 9.88-4.73 3.4-9.54 3.4m122.51.51q-12.12 0-20.09-4.9t-11.95-12.95q-3.99-8.05-3.99-17.35 0-8.79 3.41-17.67 3.4-8.89 9.96-16.19 6.55-7.3 15.93-11.79 9.38-4.48 21.17-4.48 14.61 0 21.33 6.56t6.72 15.85q0 7.97-4.23 14.69-4.23 6.73-11.21 10.79-6.97 4.07-15.27 4.07-4.31 0-8.8-1.33-4.48-1.33-8.79-4.15.83 10.29 5.97 14.94 5.15 4.65 12.29 4.65 4.98 0 9.96-1.91t9.21-4.98 6.56-6.56l1.16.83q0 8.64-3.57 14.7-3.57 6.05-9.38 9.87t-12.7 5.56q-6.89 1.75-13.69 1.75m3.81-44.82q5.32 0 8.64-3.07 3.32-3.08 4.98-7.23t1.66-7.3q0-3.82-2.16-6.39t-5.98-2.57q-2.99 0-6.55 2.15-3.57 2.16-6.4 7.39-2.82 5.23-3.65 14.53 5.31 2.49 9.46 2.49"/><path fill="#272727" d="M1123.464 146.31q-5.98 0-10.62-4.9-4.65-4.9-4.65-13.86 0-4.32.99-9.79 1-5.48 2.33-11.21t2.32-10.79q1-5.06 1-8.38 0-3.49-1.25-5.56-1.24-2.08-3.23-2.08-3.16 0-6.48 4.32l-.99-.67q-.17-2.65 1.16-6.3 1.33-3.66 4.15-7.06t7.22-5.73q4.4-2.32 10.37-2.32 8.8 0 12.79 5.06 3.98 5.07 3.98 12.2 0 1.17-.08 2.41-.09 1.25-.25 2.41 5.97-10.79 12.53-16.52t12.2-5.73q5.31 0 7.8 4.15t2.49 9.96q0 5.32-2.07 10.79-2.08 5.48-6.14 9.05-4.07 3.57-9.88 3.4l-.66-.33q-.17-4.31-2.83-6.8-2.65-2.49-5.97-2.49-4.48 0-8.38 4.48-3.91 4.48-3.91 12.95 0 5.14 1.17 11.12 1.16 5.97 1.16 10.12 0 4.98-2.33 9.13-2.32 4.15-5.97 6.56t-7.97 2.41m111.88.16q-5.81 0-10.12-3.81-4.32-3.82-4.32-12.45v-1.66q0-.83.17-1.66-4.98 9.96-11.21 14.69-6.22 4.73-12.53 4.73-5.81 0-10.96-4.07-5.14-4.07-8.3-12.03-3.15-7.97-3.15-19.26 0-11.62 3.24-20.75 3.23-9.13 8.55-15.44 5.31-6.31 11.62-9.54 6.3-3.24 12.28-3.24 6.64 0 11.95 4.07 5.31 4.06 7.31 12.86.49-2.82.74-5.14.25-2.33.25-3.16.17-4.48 4.57-6.64t9.71-2.16q4.65 0 8.8 1.83t5.64 6.14l.33 1q-1.99 4.48-3.98 10.79t-3.65 13.2q-1.66 6.88-2.66 13.44t-1 11.54q0 5.48 1.17 7.55 1.16 2.08 2.82 2.08 2.82 0 5.14-3.99l1.33.67q0 5.64-3.65 10.29t-9.13 7.39q-5.48 2.73-10.96 2.73m-27.05-21.08q4.31 0 9.54-7.72t9.05-22.16q.33-1.49.66-2.9t.5-2.74q-2.66-6.14-5.56-8.72-2.91-2.57-5.73-2.57-4.15 0-7.72 4.4t-5.81 11.04-2.24 13.28q0 9.13 2.08 13.61 2.07 4.48 5.23 4.48"/><path fill="#3d9970" d="M755.074 64.67a89.465 43.275-45 1 0 61.2 61.2 89.465 43.275-45 1 0-61.2-61.2"/><path fill="#ffdc00" d="M743.614 93.76a44.2 91.377 0 1 0 88.4 0 44.2 91.377 0 1 0-88.4 0"/><path fill="#0074d9" d="M755.764 124.98a44.237 91.453-45 1 0 62.56-62.56 44.237 91.453-45 1 0-62.56 62.56"/></g><path fill="transparent" stroke="transparent" d="M692.26 0h624v188h-624z"/></g></svg>